<?xml version="1.0" encoding="utf-8"?>
<svg version="1.1" xmlns="http://www.w3.org/2000/svg" xmlns:xlink="http://www.w3.org/1999/xlink" x="0px" y="0px"
	 viewBox="0 0 400 70" style="enable-background:new 0 0 400 70;" xml:space="preserve">
<g>
	<path d="M37.9,4.7l0.7-2h10.1l-7.6,23H30.5c0,0,3.5-9,4.1-12.7c-0.2-0.8-1-1.3-2-1.7c-1.7-0.5-3.8-0.8-5,0.3
		c-0.8,0.8-1.9,4.5-2.7,6.6c-0.7,2-11.7,35.3-12.4,37.4c-0.2,1.1,0,2.3,0.8,2.9c1.3,1.3,3.8,1,5.5,0.5c1.4-0.5,1.6-2.3,2.7-5
		c0.4-1.2,2.1-6.3,2.1-6.3L34,47.7c0,0-5.4,16.2-7,17.9c-2.4,2.6-6.1,2.4-9.4,2.8H9.1c-3.4-0.3-7.2-1.8-8.3-5.3
		c-0.3-0.9-0.5-1.8-0.7-2.8C-0.2,55,2,50,3.6,44.9c2.1-6.8,4.5-13.9,6.7-20.9c1.6-4.9,3.1-9.5,4.7-14.4c1.2-2.9,2.9-6.8,6.5-7.6
		c4.3-1.1,9-1.2,13.5,0C37.1,2.8,37.9,4.7,37.9,4.7z"/>
	<path d="M62.9,2.7l-7.6,24.8l2.2-0.7c0.9-0.1,8.3-1.4,10.4,3c1,2.7-0.5,5.4-1,8c-2.2,6.4-7.1,23-7.1,23h2.3l-2.4,7.5H45.6l2.4-7.5
		h2.2c0,0,5-15.3,7.4-22.4c0.2-0.6,0.4-1.8-0.1-2.4c-0.6-1.2-2-1.1-3.2-1c-1.9,0.4-2.3,2.5-2.9,4c-2.2,7.1-7.1,21.9-7.1,21.9h2.4
		l-2.4,7.5H29.7l2.5-7.5h2.4L51,9.8h-2.7l2.3-7L62.9,2.7L62.9,2.7z"/>
	<polygon points="212.1,2.7 194.6,60.6 197.2,60.6 194.8,68.1 179.7,68.1 182.1,60.6 184.7,60.6 201,9.7 195.5,9.7 198.4,2.7 	"/>
	<polygon points="252.2,2.7 248.9,39.8 269.4,2.7 291.3,2.7 289.1,9.8 284.4,9.7 267.4,60.6 271.4,60.6 269,68.1 249.4,68.1 
		251.9,60.6 255.1,60.6 267.9,22.4 243.6,68.1 235.4,68.1 239.8,22.3 227.1,60.6 231.2,60.6 228.8,68.1 211,68.1 213.3,60.6 
		216.8,60.6 233.4,9.7 227.8,9.7 230.2,2.7 	"/>
	<path d="M350.8,16.7l-2.7,10.3h3.8l-2.5,7.8h-4.5c0,0-4.9,15.2-7.5,22.5c-0.2,0.8-0.5,1.9-0.1,2.6c1.1,1,4.2,0.7,4.2,0.7l-2.4,7.7
		h-8.6c-1.7-0.2-2.9-0.7-3.4-2c-0.2-0.3-0.4-1.2-0.3-1.8c0-2,0.5-3.1,0.5-3.1c2.5-7.3,8.9-26.6,8.9-26.6h-2.8l2.7-7.8h2.7l3.1-10.2
		C342,16.7,350.8,16.7,350.8,16.7z"/>
	<path d="M129.1,29.4c0.8,1.5,0.4,3.5,0,5.2c-0.6,2.1-1.2,4.2-2,6.2c-0.9,2.7-2.7,8.3-2.7,8.3c-1.3,3.6-3.7,11.5-3.7,11.5h2.3
		l-2.4,7.5h-13.9l2.4-7.5h2.1c0,0,7-21.4,7.8-24.4c0-0.5-0.2-0.9-0.5-1.3c-1.1-0.6-2.6-0.7-3.7,0c-1.9,1-2.1,3.2-2.8,5.2
		c-2.1,6.1-6.6,20.6-6.6,20.6l2.1-0.1l-2.3,7.5H90.7l2.4-7.5h2.5l8.2-25.8h-4.3l2.5-7.8h12.4l-1,2.9c0,0,0.8-0.8,1.4-1.2
		c3.9-3.1,9.2-2.1,11.3-1.6C127.6,27.6,128.5,28.1,129.1,29.4z"/>
	<path d="M160.9,29.4c0.8,1.5,0.4,3.5,0,5.2c-0.6,2.1-1.2,4.2-2,6.2c-0.9,2.7-2.7,8.3-2.7,8.3c-1.3,3.6-3.7,11.5-3.7,11.5h2.3
		l-2.4,7.5h-13.9l2.4-7.5h2.1c0,0,7-21.4,7.8-24.4c0-0.5-0.2-0.9-0.5-1.3c-1.1-0.6-2.6-0.7-3.7,0c-1.9,1-2.1,3.2-2.8,5.2
		c-2.1,6.1-6.6,20.6-6.6,20.6l2.1-0.1l-2.3,7.5h-14.5l2.4-7.5h2.5l8.2-25.8h-4.3l2.5-7.8h12.4l-1,2.9c0,0,0.8-0.8,1.4-1.2
		c3.9-3.1,9.2-2.1,11.3-1.6C159.5,27.6,160.3,28.1,160.9,29.4z"/>
	<path d="M321.5,26.5c1.7,0.2,4.4,1.2,5.5,2.4c0.5-0.8,0.8-1.8,0.8-1.8h7.1l-4.1,12.4h-7c0,0,0.6-2.5,0-3.9
		c-0.4-0.7-1.7-1.4-2.5-1.4c-1.1,0-2.6,0.9-2.6,0.9c-0.5,0.5-2.2,3.5-1.3,5.3c1.3,2,4.3,6.3,4.3,6.3c1,1.4,2.1,2.7,3.2,4.1h-0.1
		c2.2,2.2,1.3,6.2,0.4,8.6c-0.8,2.7-1.2,3.7-2,5.6c-1.1,2.2-3.2,3.3-5.3,3.7c-1.8,0.3-4.2,0.1-6.2,0c-2.1-0.2-4.7-2.5-4.7-2.5
		l-0.7,2.1l-7.6-0.1l4.6-13.8h6.4c0,0-1.6,4.5,0.6,5.9c0.9,0.4,2,0.8,3.1,0.4c1.8-0.5,1.9-2.4,2.5-3.8c0.5-2.7-2.1-4.3-3.1-6.3
		c-2.1-2.6-4.3-5-5.2-8c-0.3-1.5,0-3,0.4-4.4c0.8-2.6,1.7-5.1,2.6-7.7c0.7-2.4,3.2-3.6,5.5-3.9C317.6,26.4,321.1,26.4,321.5,26.5z"
		/>
	<path d="M399.9,27.2L396.3,38c0,0-5.9-0.8-7.7,2.4c-0.8,1.5-6.8,20.3-6.8,20.3h3.5l-2.4,7.5h-15.4l2.5-7.5h2.9l7.7-25.7h-3.8l2.5-8
		h12l-0.9,2.9c0,0,1.3-1,2.5-1.8C394.9,27,399.9,27.2,399.9,27.2z"/>
	<path d="M182,26.8c1.6,0.2,3.2,0.3,4.7,0.8c1.6,0.5,2.9,2.1,3.2,3.8c0.2,1.6-0.4,3.2-0.9,4.7c-1.4,4.4-4.5,13.5-4.5,13.5l-14.8,0.1
		c0,0-2.2,6.2-2.9,8.9c0,0.5,0,1.1,0.3,1.5c1,0.8,2.5,0.6,3.6,0.4c0.7-0.1,1.3-0.5,1.5-1.1c0.4-1.1,1.2-3.2,1.2-3.2h8.9
		c0,0-1.5,5.2-2.5,7.5c-1,2.8-4,4.4-6.8,4.9c-4.7-0.1-10.3,0.9-14.5-1.3c-1.7-1.4-2.5-3.4-2.1-5.7c0-1.3,0.7-2.2,0.9-3.5
		c2.9-8.1,5.4-16.6,8.2-24.6c0.8-2.3,2.2-4.5,4.4-5.5c1.6-0.8,3.5-1,5.3-1.2L182,26.8z M174.2,35.7c-0.7,2.1-2,6.3-2,6.3h5.5
		c0,0,1.3-4,1.6-4.8c0.4-1.4,0.3-0.2,0.2-1.7C178.8,34.1,175.2,33.9,174.2,35.7z"/>
	<path d="M367.7,26.8c1.6,0.2,3.2,0.3,4.7,0.8c1.6,0.5,2.9,2.1,3.2,3.8c0.2,1.6-0.4,3.2-0.9,4.7c-1.4,4.4-4.5,13.5-4.5,13.5
		l-14.8,0.1c0,0-2.2,6.2-2.9,8.9c0,0.5,0,1.1,0.3,1.5c1,0.8,2.5,0.6,3.6,0.4c0.7-0.1,1.3-0.5,1.5-1.1c0.4-1.1,1.2-3.2,1.2-3.2h8.9
		c0,0-1.5,5.2-2.5,7.5c-1,2.8-4,4.4-6.8,4.9c-4.7-0.1-10.3,0.9-14.5-1.3c-1.7-1.4-2.5-3.4-2.1-5.7c0-1.3,0.7-2.2,0.9-3.5
		c2.9-8.1,5.4-16.6,8.2-24.6c0.8-2.3,2.2-4.5,4.4-5.5c1.6-0.8,3.5-1,5.3-1.2L367.7,26.8z M359.8,35.7c-0.6,2.1-2,6.3-2,6.3h5.5
		c0,0,1.3-4,1.6-4.8c0.4-1.4,0.3-0.2,0.2-1.7C364.5,34.1,360.8,33.9,359.8,35.7z"/>
	<path d="M96.4,30c1,1.7,0.9,3.6,0.4,5.5c-2.7,7.9-8.1,25.1-8.1,25.1l2.2,0.1l-2.5,7.4H76.6l0.5-1.4c0,0-1.6,1.6-4.9,1.8
		c-3.1,0-7.4,0.3-8.9-2.7c-1.1-2.2,0.2-4.7,0.7-7c1.1-3.3,2.1-6.7,3.4-9.9c2.1-4.2,7.1-4.7,11.1-5.9c2.3-0.5,4.6-1.1,6.6-2.4
		c1.1-1.1,1.4-2.6,1.8-4c0.2-0.8-0.2-1.6-0.9-2c-1.4-0.7-3.3-0.6-4.7,0c-1.7,0.9-3,4.7-3,4.7h-7.7l4.1-12.3h7.6c0,0-0.5,1.7-0.4,1.9
		c2.7-2.1,4.8-2.7,9.6-2.3C94.1,27.1,95.2,28.2,96.4,30z M78.2,51.5c-2.4,0.6-3.2,3.3-3.9,5.4c-0.2,0.9-0.9,2.1-0.2,2.9
		c1.1,0.7,2.8,0.6,4,0.3c0.8-0.3,1.3-1,1.6-1.6c1-2.6,2.9-8.3,2.9-8.3S79.5,51.1,78.2,51.5z"/>
	<path d="M304.9,30c1,1.7,0.9,3.6,0.4,5.5c-2.7,7.9-8.1,25.1-8.1,25.1l2.2,0.1l-2.4,7.4h-11.9l0.5-1.4c0,0-1.6,1.6-4.9,1.8
		c-3.1,0-7.4,0.3-8.9-2.7c-1.1-2.2,0.2-4.7,0.7-7c1.1-3.3,2.1-6.7,3.4-9.9c2.1-4.2,7.1-4.7,11.1-5.9c2.3-0.5,4.6-1.1,6.6-2.4
		c1.1-1.1,1.4-2.6,1.8-4c0.2-0.8-0.2-1.6-0.9-2c-1.4-0.7-3.3-0.6-4.7,0c-1.7,0.9-3,4.7-3,4.7h-7.7l4.1-12.4h7.6c0,0-0.5,1.7-0.4,1.9
		c2.7-2.1,4.8-2.7,9.6-2.3C302.7,27.1,303.8,28.2,304.9,30z M286.8,51.5c-2.4,0.6-3.2,3.3-3.9,5.4c-0.2,0.9-0.9,2.1-0.2,2.9
		c1.1,0.7,2.8,0.6,4,0.3c0.8-0.3,1.2-1,1.6-1.6c1-2.6,2.9-8.3,2.9-8.3S288.1,51.1,286.8,51.5z"/>
</g>
</svg>