<svg viewBox="0 0 290 190" version="1.1" xmlns="http://www.w3.org/2000/svg" xmlns:xlink="http://www.w3.org/1999/xlink">
<style type="text/css">
	.clock{opacity:0.4;}
</style>
<g>
	<path d="M42.9,57.7L25.5,73.5h33.7V88H3.8V74.5l30.4-28.8c6.9-6.6,9.8-11.6,9.8-17.1c0-7.6-5.3-13.4-12.4-13.4
		c-8,0-13.3,6.7-13.3,16.9H3.3c0-19.7,11.9-31,28.3-31c15.8,0,27.9,12,27.9,27.8C59.5,39.3,55.9,46,42.9,57.7z"/>
	<path d="M122.5,83.3c-6.9,3.5-14.7,4.7-27.7,4.7H75V2.5h19.6c13.4,0,23.6,2.1,30.3,6.1c11.9,7.2,18.6,20.6,18.6,36.8
		C143.5,62.7,135.7,76.8,122.5,83.3z M114.4,21.1c-5-2.5-10.4-3.5-20.5-3.5h-3.1v55.2h3.5c9.5,0,16.1-1.2,20.8-3.8
		c7.6-4.2,12.4-13.3,12.4-23.6C127.5,34.4,122.5,25.3,114.4,21.1z"/>
	<path d="M209.8,88l-9.1-22.1h-30.4L160.7,88h-17.5l35.6-85.5h12.5L227.3,88H209.8z M185.2,24.8L176,50.7h18.3L185.2,24.8z"/>
	<path d="M260.5,56.4V88h-15.9V56.4L216.6,2.5h17.1l19,39.3l18.9-39.3h17.1L260.5,56.4z"/>
	<path d="M109.3,184.3v-70h13v70H109.3z"/>
	<path d="M178.1,184.3l-29.3-50.9v50.9h-13v-70h14.8l29,51v-51h13v70H178.1z"/>
	<path d="M258,160.1l-14.3,13h27.6v11.8H226v-11.1l24.9-23.6c5.7-5.4,8.1-9.5,8.1-14c0-6.3-4.4-11-10.1-11
		c-6.5,0-10.9,5.5-10.9,13.8h-12.4c0-16.1,9.8-25.4,23.2-25.4c13,0,22.8,9.9,22.8,22.7C271.5,145,268.6,150.5,258,160.1z"/>
</g>
<g class="clock">
	<path d="M38.7,111.5c6.8,0,13.1,1.7,18.9,5.1s10.4,8,13.8,13.8c3.4,5.8,5.1,12.1,5.1,18.9c0,6.8-1.7,13.1-5.1,18.9
		c-3.4,5.8-8,10.4-13.8,13.8c-5.8,3.4-12.1,5.1-18.9,5.1s-13.1-1.7-18.9-5.1c-5.8-3.4-10.4-8-13.8-13.8C2.7,162.3,1,156,1,149.3
		c0-6.8,1.7-13.1,5.1-18.9c3.4-5.8,8-10.4,13.8-13.8S31.9,111.5,38.7,111.5z M38.7,179.7c5.5,0,10.5-1.4,15.2-4.1
		c4.7-2.7,8.4-6.4,11.1-11.1c2.7-4.7,4.1-9.7,4.1-15.2S67.8,138.7,65,134s-6.4-8.4-11.1-11.1c-4.7-2.7-9.7-4.1-15.2-4.1
		s-10.5,1.4-15.2,4.1c-4.7,2.7-8.4,6.4-11.1,11.1s-4.1,9.7-4.1,15.2s1.4,10.5,4.1,15.2c2.7,4.7,6.4,8.4,11.1,11.1
		C28.2,178.3,33.2,179.7,38.7,179.7z M48.1,163.9c0.4,0.3,0.9,0.4,1.4,0.3s0.9-0.4,1.2-0.8l2.7-4c0.3-0.4,0.4-0.9,0.4-1.4
		c-0.1-0.5-0.3-0.9-0.7-1.2L43,149.6V128c0-0.5-0.2-0.9-0.5-1.3c-0.4-0.4-0.8-0.5-1.3-0.5h-4.9c-0.5,0-0.9,0.2-1.3,0.5
		c-0.4,0.4-0.5,0.8-0.5,1.3v24.9c0,0.6,0.3,1.1,0.8,1.5L48.1,163.9z"/>
</g>
</svg>