<svg viewBox="0 0 136 23" version="1.1" xmlns="http://www.w3.org/2000/svg" xmlns:xlink="http://www.w3.org/1999/xlink">
    <g class="cm-logo">
        <path d="M12.8181978,1.20810882 L13.0467245,0.543138235 L16.4729449,0.537726471 L13.9278966,8.34115294 L10.3376747,8.33777059 C10.3376747,8.33777059 11.5045053,5.25306471 11.7276549,3.99685882 C11.6752282,3.71916765 11.3865451,3.54362353 11.0706406,3.42388824 C10.5016763,3.26965294 9.80097303,3.16006471 9.38559213,3.53381471 C9.1002698,3.8203 8.75512725,5.07210882 8.46610817,5.76007941 C8.21573699,6.46022647 4.48369412,17.8070059 4.24710176,18.4946382 C4.18156836,18.8511382 4.23365901,19.2610794 4.52267809,19.4870206 C4.96964945,19.9361971 5.81049333,19.8303294 6.36198206,19.6713588 C6.84592099,19.4870206 6.91179045,18.8913882 7.26163796,17.9659765 C7.39304082,17.5563735 7.9623412,15.8290059 7.9623412,15.8290059 L11.4846772,15.8506529 C11.4846772,15.8506529 9.67225872,21.3760647 9.12043392,21.9317853 C8.30613947,22.8044324 7.0583164,22.7381382 5.94223226,22.8707265 L3.06481208,22.8578735 C1.90907184,22.7516676 0.647806019,22.2632559 0.253933507,21.0598147 C0.149080074,20.7415353 0.0963172884,20.4513294 0.00423446557,20.1205353 C-0.0616349989,18.2825647 0.687126057,16.5913882 1.21307357,14.8856676 C1.9352852,12.5853294 2.73647297,10.1530794 3.47179127,7.7993 C3.99740272,6.13382941 4.52267809,4.54750588 5.03551892,2.90807941 C5.44249811,1.91671176 6.00776566,0.59455 7.21559655,0.329711765 C8.67346256,-0.0403176471 10.2825595,-0.0792147059 11.7935243,0.339520588 C12.5382526,0.589476471 12.8181978,1.20810882 12.8181978,1.20810882"></path>
        <path d="M21.0963223,1 L18.5502879,9.32269735 L19.3000833,9.08424669 C19.6034051,9.04946567 22.0596776,8.61971938 22.7887845,10.0811912 C23.1278108,10.9958652 22.6322851,11.8984996 22.4497581,12.7606676 C21.7196502,14.8916741 20.0882528,20.4947631 20.0882528,20.4947631 L20.8624075,20.5041272 L20.0662295,23 L15.2891615,23 L16.0883427,20.4974385 L16.8277938,20.4974385 C16.8277938,20.4974385 18.497899,15.3618868 19.3064234,12.9569798 C19.3845062,12.7479592 19.4495753,12.3687123 19.267382,12.1596917 C19.0588274,11.7677363 18.5893293,11.7811137 18.1845665,11.8199079 C17.5462227,11.9379627 17.4280973,12.6697019 17.2325566,13.152623 C16.5024487,15.5194047 14.8760566,20.4974385 14.8760566,20.4974385 L15.6749041,20.4974385 L14.8657123,23 L9.95850622,23 L10.7843824,20.4974385 L11.5722182,20.4947631 L17.105088,3.36310293 L16.2024637,3.34939118 L16.9752836,1 L21.0963223,1 Z"></path>
        <polygon points="71.7012448 1 65.7897904 20.4948773 66.6804839 20.4948773 65.8609117 23 60.746888 23 61.5667957 20.4948773 62.424948 20.4948773 67.9428869 3.3502873 66.1068169 3.3502873 67.0679608 1"></polygon>
        <polygon points="85.4910477 1.00535011 84.4179411 13.4945207 91.2643679 1 98.5892116 1.00234067 97.8632572 3.36608758 96.2837482 3.35237791 90.6023801 20.4954782 91.93102 20.4954782 91.1477621 23 84.5745261 23 85.3987626 20.503169 86.4841961 20.503169 90.7816198 7.64417187 82.639536 23 79.8616525 23 81.3405473 7.60003344 77.102759 20.4954782 78.4870365 20.4954782 77.6894528 23 71.7012448 23 72.4861685 20.4978189 73.6578903 20.4978189 79.2083268 3.35237791 77.3476312 3.35237791 78.1552097 1.00535011"></polygon>
        <path d="M119.112728,5 L118.161699,8.58242649 L119.502075,8.58242649 L118.601045,11.308752 L117.007487,11.308752 C117.007487,11.308752 115.263226,16.6172725 114.359005,19.1706414 C114.274965,19.4564714 114.164686,19.8228757 114.316808,20.0809215 C114.705091,20.4205835 115.788738,20.3299375 115.788738,20.3299375 L114.93416,23 L111.855198,22.988539 C111.245291,22.9204677 110.816584,22.7339662 110.660207,22.2928919 C110.574395,22.1907849 110.536098,21.8834221 110.539644,21.6819866 C110.552055,20.9974531 110.729708,20.6015281 110.729708,20.6015281 C111.602725,18.0630933 113.911858,11.308752 113.911858,11.308752 L112.918633,11.308752 L113.889164,8.58242649 L114.858986,8.58242649 L115.953271,5 L119.112728,5 Z"></path>
        <path d="M43.6672037,10.006727 C43.9385893,10.5037265 43.7843629,11.1841305 43.6549582,11.759445 C43.4477784,12.4656194 43.253837,13.1594105 42.9953587,13.8394798 C42.684589,14.7551637 42.1160029,16.6123018 42.1160029,16.6123018 C41.7019743,17.8161449 40.8858315,20.4932485 40.8858315,20.4932485 L41.6589497,20.4986034 L40.8606787,22.9966532 L36.2232933,23 L37.0103117,20.4932485 L37.7003595,20.4932485 C37.7003595,20.4932485 40.0068067,13.2902703 40.265616,12.2959367 C40.2785233,12.1255847 40.2133246,11.9820071 40.0842509,11.8641998 C39.735421,11.6684121 39.2310408,11.6416377 38.8689726,11.8511473 C38.2351878,12.1911819 38.1574126,12.9365138 37.9373255,13.5780949 C37.2515802,15.6186375 35.7599519,20.5153373 35.7599519,20.5153373 L36.4658856,20.4932485 L35.7060057,23 L30.8713693,23 L31.6659998,20.4932485 L32.4831354,20.4986034 L35.1959992,11.8029534 L33.7761888,11.7969292 L34.6121891,9.17270504 L38.7405609,9.17805991 L38.4115885,10.1375868 C38.4115885,10.1375868 38.6703977,9.85377838 38.8646702,9.72291859 C40.1524283,8.69846379 41.9369545,9.01507086 42.6322976,9.17270504 C43.1707665,9.39058157 43.4778956,9.57030461 43.6672037,10.006727"></path>
        <path d="M54.6214424,10.006727 C54.8928256,10.5037265 54.7389315,11.1841305 54.609528,11.759445 C54.4020192,12.4656194 54.2080795,13.1594105 53.9496036,13.8394798 C53.6391677,14.7551637 53.070256,16.6123018 53.070256,16.6123018 C52.6562312,17.8161449 51.8404269,20.4932485 51.8404269,20.4932485 L52.613207,20.4986034 L51.8149433,22.9966532 L47.1779317,23 L47.964281,20.4932485 L48.6549842,20.4932485 C48.6549842,20.4932485 50.9617411,13.2902703 51.220548,12.2959367 C51.2334553,12.1255847 51.1679262,11.9820071 51.0388537,11.8641998 C50.690027,11.6684121 50.1856515,11.6416377 49.8232557,11.8511473 C49.1894767,12.1911819 49.1120332,12.9365138 48.8919481,13.5780949 C48.2062091,15.6186375 46.7142636,20.5153373 46.7142636,20.5153373 L47.4205218,20.4932485 L46.660318,23 L41.8257261,23 L42.6206802,20.4932485 L43.4371464,20.4986034 L46.1506471,11.8029534 L44.7311808,11.7969292 L45.5665114,9.17270504 L49.6948451,9.17805991 L49.3662067,10.1375868 C49.3662067,10.1375868 49.6250136,9.85377838 49.8192842,9.72291859 C51.1070304,8.69846379 52.8912093,9.01507086 53.5868768,9.17270504 C54.1250098,9.39058157 54.4324671,9.57030461 54.6214424,10.006727"></path>
        <path d="M108.117821,9.03028683 C108.68584,9.10791346 109.556538,9.41414396 109.931583,9.81313171 C110.082592,9.53420211 110.184696,9.20757817 110.184696,9.20757817 L112.53112,9.20757817 L111.174351,13.3270527 L108.850067,13.3270527 C108.850067,13.3270527 109.064189,12.4991449 108.844119,12.0363454 C108.702692,11.8044523 108.287335,11.5692699 108.015716,11.5692699 C107.653228,11.5570996 107.163192,11.8564227 107.163192,11.8564227 C106.982113,12.0198991 106.444495,13.0053627 106.739243,13.5918385 C107.176079,14.2483756 108.173004,15.6742717 108.173004,15.6742717 C108.508726,16.1502282 108.870554,16.5745433 109.231389,17.0245146 L109.205946,17.0373428 C109.916713,17.7705198 109.651704,19.0799758 109.350346,19.8940687 C109.096572,20.7765783 108.941267,21.1258982 108.705005,21.7261889 C108.354083,22.4465378 107.656202,22.8228296 106.945766,22.9501242 C106.338755,23.0418946 105.552979,22.9863061 104.89409,22.9471638 C104.210088,22.8961802 103.345008,22.1116907 103.345008,22.1116907 L103.102468,22.7971734 L100.580913,22.7669121 L102.096291,18.1902299 L104.227271,18.1902299 C104.227271,18.1902299 103.704852,19.6861872 104.440402,20.1351718 C104.737794,20.277268 105.09863,20.3927212 105.448561,20.277268 C106.029137,20.1226726 106.081015,19.4802793 106.261103,19.0174798 C106.429625,18.1431934 105.563883,17.6159243 105.228161,16.9347177 C104.543828,16.0860875 103.820174,15.301598 103.510886,14.2987014 C103.419686,13.8099167 103.523112,13.2958047 103.639756,12.8461623 C103.911374,11.997861 104.194558,11.1617301 104.491619,10.3130999 C104.737794,9.52893928 105.550996,9.13060939 106.300425,9.02798434 C106.84267,8.98917102 107.975734,8.99147351 108.117821,9.03028683"></path>
        <path d="M135.435685,9.09928838 L134.242659,12.7522874 C134.242659,12.7522874 132.251695,12.4930532 131.62631,13.5699763 C131.362244,14.0725178 129.342577,20.4672992 129.342577,20.4672992 L130.53594,20.4618773 L129.711662,23 L124.481328,23 L125.32249,20.4618773 L126.306491,20.4672992 L128.902579,11.6977296 L127.615679,11.6977296 L128.473387,9 L132.5654,9 L132.267903,9.99288377 C132.267903,9.99288377 132.713642,9.64486615 133.126287,9.39715351 C133.769569,8.98339546 135.435685,9.09928838 135.435685,9.09928838"></path>
        <path d="M58.5929147,12.0239079 C58.3807705,12.7373881 57.9555029,14.0999395 57.9555029,14.0999395 L59.7626454,14.0999395 C59.7626454,14.0999395 60.1918295,12.7679327 60.2943115,12.5212524 C60.4091957,12.0415042 60.3873286,12.4648115 60.3488162,11.972115 C60.1200268,11.504319 58.9121102,11.4183295 58.5929147,12.0239079 L58.5929147,12.0239079 Z M61.1526797,9.02589644 C61.6761864,9.09096956 62.1990404,9.12981423 62.6840347,9.2855249 C63.2068887,9.4545158 63.640642,9.98638892 63.717014,10.5312103 C63.7937123,11.0501352 63.6021297,11.6085688 63.4366572,12.1015972 C62.9774465,13.5677344 61.9735147,16.6304869 61.9735147,16.6304869 L57.1261821,16.6736477 C57.1261821,16.6736477 56.4202313,18.7463592 56.1907892,19.6543948 C56.1780605,19.8356699 56.1907892,20.017277 56.2929448,20.1467593 C56.6121403,20.4070517 57.0961555,20.3419786 57.4789943,20.2642893 C57.6960341,20.2254446 57.8876167,20.0952984 57.9770437,19.8874628 C58.1043302,19.5375288 58.3592297,18.8360008 58.3592297,18.8360008 L61.2933477,18.8360008 C61.2933477,18.8360008 60.7956246,20.5760426 60.4764292,21.3277035 C60.1578864,22.2490193 59.1630931,22.7941727 58.2574004,22.9495514 C56.7133168,22.9236549 54.8516695,23.2483565 53.4991684,22.522592 C52.9378021,22.054796 52.6695212,21.4063889 52.8225915,20.6142233 C52.8356465,20.1859359 53.05236,19.8748466 53.1160033,19.4598395 C54.0608611,16.7735814 54.8637454,13.9316126 55.7828195,11.2456865 C56.0497949,10.4926976 56.4966033,9.7403727 57.2113662,9.40305492 C57.7342201,9.12981423 58.346501,9.06507312 58.933651,9 L61.1526797,9.02589644 Z"></path>
        <path d="M121.331701,12.0239079 C121.119893,12.7373881 120.693666,14.0999395 120.693666,14.0999395 L122.501375,14.0999395 C122.501375,14.0999395 122.930539,12.7679327 123.03269,12.5212524 C123.147242,12.0415042 123.126355,12.4648115 123.087518,11.972115 C122.858087,11.504319 121.650554,11.4183295 121.331701,12.0239079 L121.331701,12.0239079 Z M123.89167,9.02589644 C124.414172,9.09096956 124.937654,9.12981423 125.422299,9.2855249 C125.945454,9.4545158 126.378861,9.98638892 126.455882,10.5312103 C126.531923,11.0501352 126.340024,11.6085688 126.175538,12.1015972 C125.716023,13.5677344 124.711486,16.6304869 124.711486,16.6304869 L119.865038,16.6736477 C119.865038,16.6736477 119.159447,18.7463592 118.92969,19.6543948 C118.916962,19.8356699 118.92969,20.017277 119.031514,20.1467593 C119.350368,20.4070517 119.834686,20.3419786 120.217507,20.2642893 C120.434863,20.2254446 120.625783,20.0952984 120.71488,19.8874628 C120.843139,19.5375288 121.0977,18.8360008 121.0977,18.8360008 L124.031352,18.8360008 C124.031352,18.8360008 123.534305,20.5760426 123.215125,21.3277035 C122.896598,22.2490193 121.901852,22.7941727 120.995876,22.9495514 C119.451866,22.9236549 117.589981,23.2483565 116.237871,22.522592 C115.676858,22.054796 115.408263,21.4063889 115.561,20.6142233 C115.574707,20.1859359 115.791084,19.8748466 115.855051,19.4598395 C116.799537,16.7735814 117.602383,13.9316126 118.521739,11.2456865 C118.788702,10.4926976 119.235489,9.7403727 119.950218,9.40305492 C120.472721,9.12981423 121.084972,9.06507312 121.672094,9 L123.89167,9.02589644 Z"></path>
        <path d="M26.2784649,17.3534461 C25.4384833,17.5607694 25.1629943,18.4384933 24.9107226,19.1427291 C24.8292887,19.4409429 24.5853336,19.830379 24.8431498,20.1149925 C25.2087358,20.3488531 25.8044159,20.3097105 26.2244067,20.205883 C26.4950443,20.1149925 26.6575655,19.8817952 26.7930576,19.6612032 C27.1316145,18.8053726 27.7820459,16.9039692 27.7820459,16.9039692 C27.7820459,16.9039692 26.7431577,17.2064953 26.2784649,17.3534461 M32.603277,10.17044 C32.9418339,10.7283885 32.9016368,11.3636271 32.7522836,11.985597 C31.8041856,14.6048367 29.9429887,20.38302 29.9429887,20.38302 L30.6939128,20.4012645 L29.8535847,22.8675825 L25.6994182,22.8675825 L25.8626324,22.4144567 C25.8626324,22.4144567 25.3120009,22.945536 24.1698477,22.9972839 C23.0862575,22.9972839 21.5927259,23.0971308 21.0639255,22.0860565 C20.6844784,21.3469904 21.1183303,20.5306342 21.2940195,19.7782994 C21.6734667,18.6889399 22.0387062,17.5607694 22.4729046,16.4588046 C23.1902156,15.0586259 24.9238906,14.8894501 26.3460377,14.5139461 C27.1454756,14.3328285 27.9442205,14.1636527 28.6216809,13.7231321 C28.9869205,13.3602334 29.1095911,12.867965 29.2315686,12.400907 C29.2852803,12.1415041 29.1497882,11.8562273 28.9332088,11.7265258 C28.4595063,11.4800599 27.7948674,11.5192025 27.3211649,11.7397945 C26.7389994,12.0376766 26.2753462,13.3111393 26.2753462,13.3111393 L23.6001572,13.3111393 L25.0292348,9.16268293 L27.6524447,9.16268293 C27.6524447,9.16268293 27.4701715,9.71698251 27.5110617,9.80787305 C28.4321306,9.09468089 29.1591444,8.90858749 30.8744534,9.03828895 C31.8395313,9.16268293 32.2106618,9.56107539 32.603277,10.17044"></path>
        <path d="M96.9836707,17.3534461 C96.1443766,17.5607694 95.8688858,18.4384933 95.6159193,19.1427291 C95.5337919,19.4409429 95.2908748,19.830379 95.5479996,20.1149925 C95.9142811,20.3488531 96.5096185,20.3097105 96.9303052,20.205883 C97.2009446,20.1149925 97.3627738,19.8817952 97.4979203,19.6612032 C97.836826,18.8053726 98.4876081,16.9039692 98.4876081,16.9039692 C98.4876081,16.9039692 97.4490596,17.2064953 96.9836707,17.3534461 M103.308871,10.17044 C103.648123,10.7283885 103.606193,11.3636271 103.457879,11.985597 C102.509428,14.6048367 100.649258,20.38302 100.649258,20.38302 L101.399148,20.4012645 L100.558468,22.8675825 L96.4049667,22.8675825 L96.5688751,22.4144567 C96.5688751,22.4144567 96.0175469,22.945536 94.8757326,22.9972839 C93.7917888,22.9972839 92.2975542,23.0971308 91.7694435,22.0860565 C91.3899939,21.3469904 91.8231556,20.5306342 91.999539,19.7782994 C92.3786421,18.6889399 92.7445771,17.5607694 93.1777388,16.4588046 C93.8957476,15.0586259 95.6297805,14.8894501 97.0508974,14.5139461 C97.8503406,14.3328285 98.6494373,14.1636527 99.3269022,13.7231321 C99.6924907,13.3602334 99.814469,12.867965 99.9361008,12.400907 C99.9908524,12.1415041 99.8553595,11.8562273 99.6387786,11.7265258 C99.165073,11.4800599 98.5004297,11.5192025 98.026031,11.7397945 C97.4445547,12.0376766 96.9802054,13.3111393 96.9802054,13.3111393 L94.3053453,13.3111393 L95.7347789,9.16268293 L98.3569665,9.16268293 C98.3569665,9.16268293 98.1750386,9.71698251 98.2162756,9.80787305 C99.1376972,9.09468089 99.8640227,8.90858749 101.580036,9.03828895 C102.544774,9.16268293 102.915214,9.56107539 103.308871,10.17044"></path>
        <path d="M134.11626,21.3880597 C134.295584,21.3922474 134.420052,21.3490819 134.420052,21.1451734 C134.420052,20.9296682 134.189722,20.9296682 134.034137,20.9296682 L133.64341,20.9296682 L133.64341,21.3880597 L134.11626,21.3880597 Z M134.658722,22.3138623 L134.292055,22.3138623 L133.932445,21.6312681 L133.616143,21.6312681 L133.616143,22.3138623 L133.29984,22.3138623 L133.29984,20.6980565 L134.080973,20.6980565 C134.21731,20.6980565 134.397275,20.7022442 134.518215,20.7727907 C134.662251,20.8668528 134.705879,21.0237303 134.705879,21.1918823 C134.705879,21.490175 134.553181,21.6116182 134.268316,21.6312681 L134.658722,22.3138623 Z M135.154669,21.497584 C135.154669,20.8236873 134.615415,20.2828305 133.943994,20.2828305 C133.268402,20.2828305 132.729469,20.8236873 132.729469,21.497584 C132.729469,22.1766348 133.268402,22.7174917 133.943994,22.7174917 C134.615415,22.7174917 135.154669,22.1766348 135.154669,21.497584 L135.154669,21.497584 Z M132.448133,21.497584 C132.448133,20.7470203 133.120516,20 133.943994,20 C134.763943,20 135.435685,20.6751852 135.435685,21.497584 C135.435685,22.3257812 134.763943,23 133.943994,23 C133.116025,23 132.448133,22.3257812 132.448133,21.497584 L132.448133,21.497584 Z"></path>
    </g>
</svg>